<?xml version="1.0" encoding="utf-8"?>
<!-- Generator: Adobe Illustrator 21.1.0, SVG Export Plug-In . SVG Version: 6.00 Build 0)  -->
<svg version="1.1" xmlns="http://www.w3.org/2000/svg" xmlns:xlink="http://www.w3.org/1999/xlink" x="0px" y="0px"
	 viewBox="0 0 1000 1000" style="enable-background:new 0 0 1000 1000;" xml:space="preserve">
<style type="text/css">
	.st0{fill:#C4844B;}
	.st1{fill:url(#SVGID_1_);}
	.st2{fill:#563A28;}
	.st3{fill:#7A5234;}
</style>
<g id="Layer_1">
	<path class="st0" d="M499,44.8c-34.7,0-318.9,419.6-261.6,640.9c25.3,97.9,97,234.8,255.7,237.9C643,926.4,725.7,796.6,753.3,669
		C800.5,450.4,533,44.8,499,44.8z"/>
	<linearGradient id="SVGID_1_" gradientUnits="userSpaceOnUse" x1="495.9691" y1="45.2043" x2="495.9691" y2="924.0417">
		<stop  offset="0" style="stop-color:#C8864C"/>
		<stop  offset="0.2241" style="stop-color:#C5844A"/>
		<stop  offset="0.4016" style="stop-color:#BB7C45"/>
		<stop  offset="0.5631" style="stop-color:#AA703D"/>
		<stop  offset="0.7151" style="stop-color:#935F31"/>
		<stop  offset="0.8591" style="stop-color:#744922"/>
		<stop  offset="0.9932" style="stop-color:#512F10"/>
	</linearGradient>
	<path class="st1" d="M500.4,45.2c-90.5-1.3-318.9,419.6-261.6,640.9C264.2,784,335.8,921,494.5,924
		c149.9,2.9,232.6-126.9,260.1-254.5C801.9,450.8,615.9,46.9,500.4,45.2z"/>
</g>
<g id="Layer_3">
</g>
<g id="Layer_2">
	<polygon class="st2" points="445.4,128.6 348.3,286.6 277.3,491 277.3,708.5 306.3,444.6 384.5,256.2 	"/>
	<polygon class="st2" points="367.9,830.8 327.3,758.3 324.4,678.6 347.6,487.2 338.9,696 350.5,778.6 	"/>
	<polygon class="st2" points="493.2,878.7 447.6,658.3 447.6,490.1 487.3,306 471.4,443.7 471.4,581.5 479.3,758.3 	"/>
	<polygon class="st2" points="507.3,67.6 559.5,221.3 588.5,395.3 592.8,547.5 604.4,467.8 604.4,369.2 588.5,267.7 550.8,150.3 	
		"/>
	<polygon class="st2" points="548.5,869.4 616.6,838.8 687.9,753.3 737.6,632.4 740.7,561.3 715.2,639.2 645.6,771.5 597.1,828.4 	
		"/>
	<polygon class="st3" points="635.7,729.7 674.5,633.5 694.2,498.1 666.3,331.7 676.4,493.7 667.1,594.8 	"/>
	<polygon class="st3" points="394.9,598.9 389.2,434.3 415.9,300.9 488.2,105.2 446.8,281.2 418.6,385.4 406.4,479 	"/>
	<polygon class="st3" points="511.4,865.6 588.1,742.2 640.2,572.7 650,478.9 589.7,658.3 542.4,789.9 	"/>
	<polygon class="st3" points="509,733.7 549.8,527.8 549.8,423.4 523.7,294.4 507.8,224.8 529.5,462.6 522.3,565.5 	"/>
	<polygon class="st3" points="443.3,890.3 404.1,832.3 372.3,743.8 376.6,606.1 402.7,765.6 417.2,822.1 	"/>
</g>
</svg>
