<?xml version="1.0" encoding="utf-8"?>
<!-- Generator: Adobe Illustrator 21.1.0, SVG Export Plug-In . SVG Version: 6.00 Build 0)  -->
<svg version="1.1" id="Layer_5" xmlns="http://www.w3.org/2000/svg" xmlns:xlink="http://www.w3.org/1999/xlink" x="0px" y="0px"
	 viewBox="0 0 1099.9 174.1" style="enable-background:new 0 0 1099.9 174.1;" xml:space="preserve">
<style type="text/css">
	.st0{fill:#3A3A3A;}
</style>
<title>lchowdoyouseeyourself</title>
<path class="st0" d="M4.8,3.2c-4.7,30-6.2,61.1-3.4,91.3c0.9,9.9,0.8,31.1,13.5,33.8c7.7,1.6,12.8-5.2,16.1-11
	c2.1-3.6,3.7-7.4,5.4-11.1c1.4-3.2,3.3-9.6,6.4-11.5c1.2-0.8-0.1-1.1,1.1-0.1c0.9,0.7,1.1,2.9,1.4,4c0.6,2.4,0.9,4.8,1,7.2
	c0.2,4.6,0,9.2,0.4,13.8c0.7,8.2,3.2,16,9.4,21.6c4.3,3.9,10.7-2.4,6.4-6.4c-11.7-10.7-4.5-29.3-9.9-42.7c-2.3-5.8-7.6-9.3-13.6-5.9
	c-6.2,3.6-8.9,12.1-11.8,18.3c-1.4,3.3-3,6.5-4.9,9.5c-2.1,3.4-5.4,7.9-8.1,2.6s-2.9-12.8-3.5-18.6c-1.5-14.7-2-29.5-1.4-44.3
	c0.4-16.2,1.8-32.3,4.2-48.3C14.4-0.1,5.7-2.5,4.8,3.2L4.8,3.2z"/>
<path class="st0" d="M80.3,88.5c-10.6,6.5-14,18.4-14.7,30.2c-0.3,4.7,0.1,10.5,4.8,13c5,2.7,10-0.5,13.6-3.9
	c7.4-7,15.9-19.4,11.5-30.1c-1.8-4.5-6.1-7.8-11.1-7.5c-6.4,0.4-10,6-14.5,9.8s1.9,10,6.4,6.4c2.2-1.8,4-4.8,6.5-6.2
	c4.4-2.4,5,2.2,4.4,5.5c-0.9,5.6-4.7,10.6-8.6,14.6c-0.6,0.6-2.4,2.8-3.1,2.8c-1.6,0-1-0.8-1.2-2c-0.4-3.1,0.4-7,1.1-10.1
	c1.3-6,4-11.5,9.3-14.7C89.7,93.3,85.2,85.5,80.3,88.5L80.3,88.5z"/>
<path class="st0" d="M107.1,88.8c-1.2,7.8-1.6,15.7-1.1,23.7c0.3,4.9,0.2,12.4,6.1,14.2c6.4,2,9.9-5.1,12.8-9.5l13.9-20.9h-7.8
	c3.7,8.3,2.1,18,3.3,26.8c0.8,5.7,3.8,17,12,11.9c3.3-2,5.1-6.4,6.9-9.7c2.1-3.9,3.9-8,5.5-12.1c3.4-8.6,5.7-17.6,7-26.8
	c0.8-5.7-7.9-8.1-8.7-2.4c-1.1,7.7-2.9,15.3-5.5,22.7c-1.3,3.7-2.8,7.4-4.6,10.9c-1.4,2.8-3.4,8.8-6.4,10.1l3.5-0.4
	c-0.5-0.1-1.1-7.9-1.2-9.1c-0.2-3-0.2-6.1-0.4-9.1c-0.1-6-1.4-11.8-3.8-17.3c-1.5-3.3-6.1-2.5-7.8,0l-8.5,12.9l-4.3,6.4
	c-0.9,1.3-3.6,4.1-3.7,5.6c-1,0.9-0.6,1.4,1.1,1.3c-0.2-1.2-0.3-2.5-0.4-3.7c-0.2-2.5-0.3-5-0.4-7.5c-0.1-5.2,0.3-10.5,1-15.6
	C116.5,85.5,107.8,83.1,107.1,88.8L107.1,88.8z"/>
<path class="st0" d="M235.1,87.4c-9.3-2.4-18.2,0.8-26.1,5.7c-7.5,4.6-15.6,11.1-15.6,20.8s8.5,13.6,17.1,11.8
	c10-2.1,16.6-10.3,25.1-15.2c5-2.9,0.5-10.7-4.5-7.8c-4.8,2.8-8.9,6.7-13.4,9.9c-3.4,2.4-17.2,9.2-14.9-0.6c1.3-5.6,7.7-9.3,12.3-12
	c5.4-3.2,11.4-5.5,17.7-3.9C238.3,97.4,240.7,88.8,235.1,87.4L235.1,87.4z"/>
<path class="st0" d="M243.8,12.2c-10,38.5-15.1,78.1-15.1,117.9c0,5.8,9,5.8,9,0c0-39,5-77.8,14.8-115.5
	C253.9,8.9,245.3,6.6,243.8,12.2z"/>
<path class="st0" d="M271.8,85.2c-10.2-0.2-18.2,12.8-22.5,20.6c-2.3,4.2-4.8,9.3-1.7,13.8c2.6,3.9,7.6,5.1,12,4.5
	c9.5-1.3,18.1-9.2,21.3-18c3.6-9.8-2.2-20.8-13.6-18.4c-5.7,1.2-3.3,9.9,2.4,8.7c6.6-1.4,1.9,9.2,0.2,11.5c-2.6,3.4-8,7.9-12.6,7.4
	c-3.2-0.3-1.6-2.1-0.5-4.1c1.2-2.3,2.5-4.4,4-6.5c2.2-3.2,6.7-10.5,11.1-10.4C277.5,94.3,277.5,85.3,271.8,85.2L271.8,85.2z"/>
<path class="st0" d="M324.9,79.7c-4.1,7-6.6,14.8-7.5,22.9c-0.6,5.7-1,15.3,6.6,16.4c6.8,1,14.2-6.8,18.7-10.9
	c5.9-5.5,11.2-11.6,15.6-18.3l-8.4-2.3c0.5,21.4-6.8,44.4-24.4,57.7c-16,12.1-40.7,13.9-56.3,0.3c-4.4-3.8-10.8,2.6-6.4,6.4
	c18.3,15.8,46.5,15.6,66.1,1.9c21.2-14.8,30.5-41.2,30-66.3c-0.1-4.6-5.9-5.9-8.4-2.3c-6,8.9-13.5,16.7-22.2,23
	c-0.8,0.7-1.7,1.3-2.6,1.7c0.6,0.8,0.8,0.8,0.5,0c-0.1-0.5-0.1-0.9-0.1-1.4c-0.1-2.7,0.1-5.4,0.5-8c1-5.7,3-11.3,5.9-16.3
	C335.6,79.2,327.8,74.7,324.9,79.7L324.9,79.7z"/>
<path class="st0" d="M387.5,84.8c-11.3,0.6-18.3,15.2-21.1,24.6c-1.3,4.6-3.1,11-0.8,15.5s7.5,5.4,11.9,3.9
	c10-3.3,17.1-14.3,18.7-24.3c0.8-5,0.7-10.9-2.6-15c-3.2-3.9-8.7-5.2-12.9-2.2c-4.7,3.3-0.2,11.1,4.5,7.8c2.5-1.8,2.4,6,2.3,6.8
	c-0.3,2.7-1,5.3-2.2,7.8c-1.8,3.8-6.2,10.1-10.8,10.8c-1.5,0.2-0.7,0.3-0.9-0.3c-0.4-1.2,0.5-3.9,0.7-5.1c0.5-2.5,1.3-5,2.3-7.4
	c1.6-3.9,6-13.6,11-13.9C393.3,93.5,393.4,84.5,387.5,84.8L387.5,84.8z"/>
<path class="st0" d="M411.2,83.7c-3.8,7.2-6,15.1-6.6,23.3c-0.3,5.8-0.1,14.1,6.9,15.7c7.3,1.6,12.6-6.7,16.2-11.8
	c5.3-7.6,9.8-15.8,14.6-23.7l-8.4-2.3c-1.3,11.3-7.7,23.3-4.3,34.7c1.1,4.2,4.6,7.2,8.9,7.7c5.8,0.6,9.5-3.2,14.6-5
	c5.4-1.9,3.1-10.6-2.4-8.7c-3.1,1.1-6,3.7-9.1,4.4c-5,1.1-3.9-5.9-3.5-9.1c1-8.1,3.9-15.9,4.9-24c0.6-4.7-6.3-5.8-8.4-2.3
	c-5.7,9.4-10.9,19.9-18.1,28.2c-0.4,0.4-1.7,2.3-2.2,2.4c-0.9,0.1-0.4-0.6-0.6-1.2c-0.7-2,0-5.8,0.3-7.8c0.7-5.6,2.5-11,5.1-16
	C421.7,83.1,413.9,78.6,411.2,83.7L411.2,83.7z"/>
<path class="st0" d="M518.8,81c-8.2-1.6-16.7,0-23.7,4.5c-5.9,3.8-14.1,12-11.2,19.8c3.4,9,16.8,5.8,24,5.7c0.9,0,6.4,0,6.5,0.5
	c0.3,1.3-3.8,4-4.7,4.6c-3.9,2.4-8.7,3.1-13.1,1.8c-5.6-1.5-8,7.1-2.4,8.7c7.8,2.2,16.3,0.5,22.6-4.6c5.6-4.5,10.8-13.7,2.1-18.2
	c-3.8-2-8.6-2-12.8-1.8c-2.6,0.1-5.2,0.4-7.8,0.4c-2.2,0-6.2,0.8-5.4-2.3c1-3.7,6.5-7.1,9.7-8.6c4.3-2,9.1-2.7,13.7-1.8
	C522.1,90.7,524.5,82.1,518.8,81L518.8,81z"/>
<path class="st0" d="M540.5,107.5c6.2-1.2,11.9-4.3,16.3-8.8c3.5-3.6,7.6-9.3,4-14.1c-3.2-4.3-10.5-5-15.3-4.1
	c-6,1.2-10.2,5.8-12.9,11.1c-4.9,9.4-7.3,24.1,2.1,31.6c11.7,9.5,23.8-3.1,33.6-8.6c5.1-2.8,0.5-10.6-4.5-7.8
	c-5.9,3.3-11.9,10.3-19,10.6c-7.9,0.3-8.1-9.5-6.7-15c1.8-7.3,5.8-14.7,14.4-12.9l1.3,0.4c-1.1-0.6-1.9-0.1-2.3,1.2
	c-1.1,1-2,2.2-3.2,3.1c-3,2.3-6.4,3.8-10.1,4.4C532.4,100,534.8,108.7,540.5,107.5L540.5,107.5z"/>
<path class="st0" d="M649.2,83.6c-3.8,9.4-13.5,47.2,8.3,41.9c7.8-1.9,13.6-10.6,18.1-16.6c5.7-7.7,10.4-16.2,13.9-25.2l-8.8-1.2
	c-0.9,22.4-6.3,45.3-19.7,63.7c-6.7,9.1-15.7,17.9-27.6,18.8c-12.8,1-25.2-4.8-36.7-9.8c-5.3-2.3-9.8,5.5-4.5,7.8
	c12.7,5.6,26.2,11.8,40.4,11.1c13.5-0.6,24.2-8.5,32.6-18.6c16.7-20.5,23.4-46.8,24.5-72.9c0.2-5.5-7.1-5.6-8.8-1.2
	c-4.7,12-11.8,22.9-20.9,32.2c-1.3,1.3-4.5,4.7-6.6,3.1c-1.5-1.1-0.5-8.2-0.4-9.9c0.5-7.1,2.2-14.1,5-20.6
	C660.1,80.6,651.4,78.3,649.2,83.6L649.2,83.6z"/>
<path class="st0" d="M710,87.3c-3.6,0.1-8.9,2.5-10.6,5.8c-2.5,4.9-2.8,12.4-2.3,17.8c0.8,9.4,6.8,20.1,17.5,13
	c9.2-6.1,14.7-20.3,13.3-31c-0.7-5.3-4-10.6-9.7-11.5c-4.9-0.9-9.7,2.3-10.7,7.2c-1.2,5.7,7.5,8.1,8.7,2.4c0.3-1.5,2.4,1.3,2.6,1.6
	c0.3,1,0.4,2.1,0.3,3.2c0,2.5-0.4,5-1.2,7.4c-1.3,4.4-3.8,9.5-7.5,12.5c-2,1.6-2.3,2-3.2,0c-0.6-1.4-0.9-2.9-1-4.4
	c-0.6-4.2-0.6-10.7,1.4-14.6l-2.7,2.1c1.4-0.5,3.9-2.6,5.1-2.7C715.9,96.1,715.9,87.1,710,87.3L710,87.3z"/>
<path class="st0" d="M744,82.2c-3.8,8-6.4,16.6-7.6,25.4c-0.8,6.2-1.2,14.6,6.7,16c8.1,1.5,14-6.9,18.7-12l20.7-22.5l-7.5-4.4
	c-2.3,5.8-4.3,11.6-6,17.6c-1.4,4.8-3.9,11.2-3.3,16.3c0.4,4,3.9,6.8,7.9,6.4c0.1,0,0.1,0,0.2,0c5-0.4,8.5-4.6,11.6-8
	c7.4-8.4,13.3-18.1,21.2-26.1c0.5-0.5,3.3-2.5,1.2-3.3c0.1,0-1.2,4.3-1.2,4.6l-2.5,9.2l-5.2,19.2c-1.3,4.9,5.7,8,8.2,3.5
	c4-7,8.1-13.9,14.3-19.2c5.8-4.9,14.2-10.6,22.2-8.9c5.6,1.2,8.1-7.4,2.4-8.7c-20.9-4.6-37.7,16.3-46.7,32.2l8.2,3.5l5-18.3
	c1.5-5.4,4-11.4,4.4-17.1c0.3-4.2-2.2-7.9-6.7-8.3c-5.2-0.4-9.3,4.4-12.4,7.8c-7.5,8.3-13.4,18-21.2,26.1c-0.7,0.7-2.5,1.8-2.9,2.6
	l0.8,1.6c0.2-0.9,0.4-1.8,0.6-2.7c0.7-3,1.4-6,2.2-9c1.8-6.3,3.9-12.5,6.3-18.5c1.7-4.2-4.6-7.5-7.5-4.4
	c-8.9,9.7-17.4,19.8-26.7,29.1c-1.3,1.3-3.9,4.6-4.5,1.8c-0.6-2.4,0.5-5.7,1-8c1.2-6.5,3.2-12.8,6-18.8
	C754.2,81.6,746.4,77,744,82.2L744,82.2z"/>
<path class="st0" d="M885.4,97.1c4.5-2.2,8.9-5.7,8.7-11.2s-4.9-8.3-9.8-8.9c-9.8-1.3-19.9,4.4-24.4,13.1
	c-5.2,10.1-1.3,19.1,9.3,22.3c1.2,0.5,2.5,0.8,3.8,1l1.2,0.3c-0.6-2.2-1.6-2.8-2.9-1.8c-1.6,0.1-3.4,1.1-5.1,1.3
	c-1.4,0.1-2.9,0.1-4.3,0c-7.3-0.6-14-4.6-20.3-8.1c-5.1-2.8-9.6,4.9-4.5,7.8c8.6,4.8,17.9,9.8,28.1,9.4c6.1-0.3,21.7-4.9,16.2-13.9
	c-3.9-6.4-19-2.4-13.8-13.7c1.9-3.8,5.2-6.8,9.3-8.1c1.9-0.7,4-1,6-0.7c4,0.8-0.3,2.6-2.2,3.6C875.6,91.9,880.2,99.7,885.4,97.1
	L885.4,97.1z"/>
<path class="st0" d="M897.5,98.1c-0.4,3.1,1.6,6.1,4.6,7c3.9,1.3,9-1.1,12.6-2.5c5.5-2.1,16.2-5.6,17.3-12.4
	c1.2-7.1-7.6-10.6-13.2-11.2c-7.5-0.9-13.4,2.7-17.9,8.5s-7.4,13.5-4.9,20.9c2.3,6.9,9.1,10.8,16.2,10.8c8.1,0,15.8-4.5,22.3-8.8
	c7.2-4.7,13.8-10.5,19.4-16.9c3.8-4.3-2.5-10.7-6.4-6.4c-5.5,6.4-11.9,11.9-19,16.4c-5.5,3.5-19.1,11.9-23.7,2.8
	c-3.6-7.2,4.9-18.9,12.5-18.4c1.4,0.1,4.2,0.6,5.3,1.6c0.4-1.2-0.1-1.1-1.4,0.2c-1,0.6-2.1,1.2-3.2,1.8c-2.3,1.2-4.7,2.3-7.2,3.2
	c-1.1,0.4-2.3,0.8-3.4,1.1c-2.2,0-2.4,0.8-0.6,2.4C907.3,92.4,898.3,92.4,897.5,98.1L897.5,98.1z"/>
<path class="st0" d="M965.9,30.6c-5.6,17.9-10.9,35.9-15.9,53.9c-2.4,8.7-4.8,17.4-7.2,26.2c-1.4,5.4-5.3,14.9,2.7,17.1
	c5.6,1.6,8-7.1,2.4-8.7l-0.8-0.2l2.7,2.1c-1-1.3,1.9-8.2,2.3-9.8c1-3.7,2-7.5,3-11.2c2-7.5,4.1-14.9,6.3-22.4
	c4.3-14.9,8.7-29.8,13.3-44.6C976.2,27.4,967.5,25,965.9,30.6L965.9,30.6z"/>
<path class="st0" d="M976.7,93.4c16.7-4.2,33.1-9.6,49.2-16c5.3-2.1,3-10.8-2.4-8.7c-16,6.4-32.4,11.8-49.2,16
	C968.7,86.1,971,94.8,976.7,93.4z"/>
<path class="st0" d="M1044.8,46.4c0.4-12.4-7.6-24-20.3-25.7c-12.7-1.7-22.3,8.2-28.6,18c-7.3,11.3-10.9,24.7-14.1,37.7
	c-3.8,15.5-6.6,31.2-8.6,47c-0.7,5.7,8.3,5.7,9,0c2.8-22.8,6.8-46.8,15.4-68.2c3.5-8.8,9.2-19.5,17.9-24.1
	c11-5.7,20.6,4.6,20.3,15.3C1035.6,52.2,1044.6,52.2,1044.8,46.4L1044.8,46.4z"/>
<path class="st0" d="M1066.2,73.3c-6.4-8.7-0.8-21.5,9.7-23.6c10.8-2.1,18.7,9.8,12.8,18.9c-2.8,4.3-7.1,7.5-10.8,10.8
	c-4.1,3.6-7.9,7.6-11.3,11.9c-2.9,3.7-6.6,7.9-6.2,12.9c0.3,4.4,3.8,7.2,8,7.5c5.8,0.3,5.8-8.7,0-9c2.1,0.1,6-6.9,7.2-8.3
	c2.3-2.7,4.8-5.3,7.5-7.7c4.4-4,9.1-7.6,12.5-12.4c6.8-9.2,5-22.1-4-29.1c-20-16-48.3,12.3-33.3,32.6
	C1061.8,82.4,1069.6,77.9,1066.2,73.3L1066.2,73.3z"/>
<path class="st0" d="M1068.3,128.5c5.8,0,5.8-9,0-9S1062.5,128.5,1068.3,128.5z"/>
<path class="st0" d="M581.3,104.9c10.1,0.1,27.9-12,17.3-23c-3.5-3.6-9.2-4.6-13.9-3.1c-5.8,1.9-9.3,7.4-11.5,12.7
	c-4.3,10.5-5.4,28.3,9.5,30.6c7.1,1,13.4-3.2,18.8-7.2c5.7-4.3,11.1-9.2,15.9-14.5c3.9-4.2-2.4-10.6-6.4-6.4
	c-4.9,5.4-10.3,10.3-16.2,14.6c-2.8,2-6.9,5.1-10.7,4.7s-5.2-4.3-5.4-7.5c-0.2-5.2,2.7-16,8.2-18.2c1.9-0.8,5.3-0.6,5.4,2.1
	c0.2,4.1-8.6,6.3-11.2,6.3C575.6,95.9,575.6,104.9,581.3,104.9L581.3,104.9z"/>
</svg>
