<?xml version="1.0" encoding="utf-8"?>
<!-- Generator: Adobe Illustrator 21.1.0, SVG Export Plug-In . SVG Version: 6.00 Build 0)  -->
<svg version="1.1" id="Layer_1" xmlns="http://www.w3.org/2000/svg" xmlns:xlink="http://www.w3.org/1999/xlink" x="0px" y="0px"
	 viewBox="0 0 1307 177" style="enable-background:new 0 0 1307 177;" xml:space="preserve">
<g>
	<g>
		<path d="M4.8,24.7c0.9,39.1,3.5,78.1,8,116.9c0.7,6.3,10.7,6.4,10,0c-4.5-38.8-7.2-77.9-8-116.9C14.7,18.3,4.7,18.2,4.8,24.7
			L4.8,24.7z"/>
	</g>
</g>
<g>
	<g>
		<path d="M16.7,97.5c11.3,1.4,22.5,1,33.7-0.7c6.3-1,3.6-10.6-2.7-9.6c-10.3,1.6-20.7,1.6-31,0.3C10.4,86.7,10.4,96.7,16.7,97.5
			L16.7,97.5z"/>
	</g>
</g>
<g>
	<g>
		<path d="M46.5,12c2.1,48.1,6.2,96,12.4,143.7c0.8,6.3,10.8,6.4,10,0C62.7,108.1,58.5,60.1,56.5,12C56.2,5.6,46.2,5.6,46.5,12
			L46.5,12z"/>
	</g>
</g>
<g>
	<g>
		<path d="M83.3,35.6c-7.9,12.6-11.8,27.7-10.8,42.6c0.9,12.4,4.7,29.4,17.4,35.1c14.6,6.5,24.4-10.6,27.2-22.4
			c3.1-13.2,2.8-31.9-5.4-43.3c-4.4-6.1-11.9-10.5-19.5-9.2c-7.5,1.3-12.6,7.1-13.4,14.5c-0.7,6.4,9.3,6.3,10,0
			c0.8-7.5,10.4-4.4,13.6-1c4.4,4.8,5.5,12,6,18.2c0.6,6.3,0.4,12.8-1.1,18.9c-1.2,4.9-4.2,14-9.9,15.5c-5,1.3-9-5.2-10.8-8.9
			c-2.7-5.8-3.9-12.6-4.2-19c-0.6-12.7,2.7-25.1,9.5-35.9C95.4,35.2,86.7,30.2,83.3,35.6L83.3,35.6z"/>
	</g>
</g>
<g>
	<g>
		<path d="M126.6,40.3c3.4,29.9,8.5,59.6,15.3,89c0.9,4,7.3,5.1,9.1,1.2c10.9-22.3,7.5-48,17.1-70.6c-3.1-0.8-6.2-1.7-9.3-2.5
			c1.8,16.3,4.5,32.5,8.1,48.5c1.7,7.5,3,15.8,6.1,22.9c2.3,5.3,6.7,9.5,12.8,7.9c1.5-0.4,3.2-1.8,3.5-3.5
			c5.5-32.4,10.9-64.8,16.4-97.2c1.1-6.3-8.6-9-9.6-2.7c-5.5,32.4-10.9,64.8-16.4,97.2c1.2-1.2,2.3-2.3,3.5-3.5
			c0.7-0.2,0-0.3-0.6-1.4c-0.7-1.2-0.9-2.5-1.3-3.8c-0.9-3.1-1.6-6.2-2.4-9.3c-1.5-5.9-2.8-11.8-4-17.7c-2.5-12.4-4.5-24.8-5.9-37.4
			c-0.5-4.2-7.1-7.7-9.3-2.5c-9.7,22.6-6.3,48.5-17.1,70.6c3,0.4,6.1,0.8,9.1,1.2c-6.6-28.5-11.7-57.3-15-86.3
			C135.9,33.9,125.9,33.9,126.6,40.3L126.6,40.3z"/>
	</g>
</g>
<g>
	<g>
		<path d="M246.4,13.8c-1.5,41.8-0.9,83.6,1.7,125.4c0.4,6.4,10.4,6.4,10,0c-2.6-41.7-3.2-83.6-1.7-125.4
			C256.7,7.4,246.7,7.4,246.4,13.8L246.4,13.8z"/>
	</g>
</g>
<g>
	<g>
		<path d="M250,21c22.6,9.1,39.1,32.2,39.8,56.6c0.7,25.2-14.5,48.9-37.1,59.7c-5.8,2.8-0.7,11.4,5,8.6c26-12.3,43.6-40.8,42-69.7
			c-1.5-28.7-20.6-54.2-47.1-64.8C246.7,8.9,244.1,18.6,250,21L250,21z"/>
	</g>
</g>
<g>
	<g>
		<path d="M309.7,44.2c-4.5,12.5-4.7,26-1.2,38.8c2.7,10,10.8,21.1,22.6,18.5c12.7-2.8,16.9-18.5,18.1-29.6
			c1.2-11.4-1-25.6-11.4-32.3c-9-5.8-24.4-2.2-26.1,9.6c-0.9,6.3,8.7,9,9.6,2.7c0.5-3.6,3.5-5.2,7-5.1c4.4,0.1,7.4,3.7,9,7.5
			c4.1,9.4,2.7,23.3-2.4,32.1c-2.2,3.8-6,7.2-10.4,4.6c-3.7-2.2-5.6-7.3-6.6-11.2c-2.8-11.1-2.5-22,1.3-32.8
			C321.5,40.8,311.8,38.1,309.7,44.2L309.7,44.2z"/>
	</g>
</g>
<g>
	<g>
		<path d="M375.8,19c3.6,14.2,8,28.2,13.4,41.9c2.6,6.7,5.5,13.2,8.5,19.7c2.3,5,4.6,12.2,10.1,14.6c5.1,2.2,9.8-0.7,12.1-5.3
			c3.1-6.3,4.3-14,6.1-20.7c4.3-15.3,8.6-30.5,12.9-45.8c1.7-6.2-7.9-8.9-9.6-2.7c-3.4,12.1-6.8,24.2-10.2,36.3
			c-1.8,6.4-3.6,12.7-5.4,19.1c-0.8,2.7-1.8,5.5-2.3,8.2c-0.4,2-0.7,0.8,0.4,1.8c-0.9-0.8-1.3-2.1-1.8-3.1
			c-10.8-21.1-18.8-43.7-24.5-66.6C383.9,10.1,374.3,12.8,375.8,19L375.8,19z"/>
	</g>
</g>
<g>
	<g>
		<path d="M405.8,88.3c2.9,27.2,5.8,54.4,8.6,81.7c0.7,6.3,10.7,6.4,10,0c-2.9-27.2-5.8-54.4-8.6-81.7
			C415.1,82,405.1,81.9,405.8,88.3L405.8,88.3z"/>
	</g>
</g>
<g>
	<g>
		<path d="M455.6,45.4c-8.6,10.9-13.4,24-13.9,37.9c-0.5,13.3,3.1,29.2,12.5,39.1c4.6,4.8,11.1,7.4,17.6,5
			c6.1-2.2,9.9-8.1,12.3-13.8c6.4-15.2,7.9-32.5,5.4-48.7c-1.2-7.8-3.4-16.2-10.2-21.1c-3-2.2-6.6-3.5-10.4-3.2
			c-3,0.2-7.9,2.9-9.2,3c1.2,0.5,2.4,1,3.5,1.5c-0.1-0.1-0.1-0.1-0.2-0.2c-4.1-5-11.1,2.1-7.1,7.1c4,4.8,10.4-2.3,15.1-1.3
			c7.3,1.7,8.4,13.2,9.1,19.1c0.9,7.9,0.7,15.9-0.6,23.7c-1.2,7.1-2.9,15.5-7.3,21.3c-10.5,14-19.6-17-20.3-24.1
			c-1.3-13.5,2.4-27.5,10.8-38.3C466.6,47.5,459.6,40.4,455.6,45.4L455.6,45.4z"/>
	</g>
</g>
<g>
	<g>
		<path d="M503.2,45.9c-0.7,17.6,0.6,35.3,4,52.6c2.1,10.8,5.5,36.1,22.5,30.1c6.8-2.4,9.9-8.9,11.7-15.4c2.4-8.4,4-17,5.4-25.6
			c2.7-17.5,4-35.2,5.1-52.9c0.4-6.4-9.6-6.4-10,0c-0.9,13.8-1.8,27.6-3.5,41.3c-0.9,7-2,14-3.4,21c-1.2,6.1-2.1,14-5.5,19.3
			c-5.1,8.1-8.3-2.2-9.5-6.6c-1.8-6.8-3.3-13.6-4.4-20.5c-2.3-14.3-3.1-28.9-2.5-43.3C513.5,39.4,503.5,39.4,503.2,45.9L503.2,45.9z
			"/>
	</g>
</g>
<g>
	<g>
		<path d="M622.1,54.9c2.2-11.3,1.4-26.6-13.2-28c-13.7-1.3-21.7,11.2-22.7,23.4c-1.1,13.5,4.5,27.5,13.7,37.2
			c7.2,7.6,24,14.6,19.8,27.6c-5.5,16.7-26.1,12.3-33.7,0.1c-3.4-5.5-12-0.4-8.6,5c6.2,10,17.6,17.2,29.7,16
			c11.2-1.1,20.8-9.9,22.9-21c2.4-12.9-6.5-21.3-15.8-28.6c-10.6-8.3-18.1-19.4-18.1-33.3c0-6.6,2.3-15.8,10.2-16.5
			c8.8-0.8,7.3,9.8,6.2,15.4C611.2,58.5,620.9,61.2,622.1,54.9L622.1,54.9z"/>
	</g>
</g>
<g>
	<g>
		<path d="M633.4,48.9c16.2,0.5,32.3-1.3,47.9-5.4c6.2-1.6,3.6-11.3-2.7-9.6c-14.8,3.9-29.9,5.6-45.3,5.1
			C626.9,38.7,626.9,48.7,633.4,48.9L633.4,48.9z"/>
	</g>
</g>
<g>
	<g>
		<path d="M633,45.3c1,24.6,2.1,49.3,3.1,73.9c0.2,4.2-0.3,9.3,3.1,12.3c3.7,3.3,9.4,1.4,13.8,0.9c12.3-1.5,24.6-3,36.8-4.5
			c6.3-0.8,6.4-10.8,0-10c-10.3,1.3-20.7,2.5-31,3.8c-2.6,0.3-5.2,0.6-7.8,0.9c-1.3,0.2-2.6,0.3-3.9,0.5c-2.3-0.2-2.5,0.2-0.9,1
			c-0.9-1.5-0.3-6.1-0.3-7.9c-0.1-2.6-0.2-5.3-0.3-7.9c-0.9-21-1.8-42-2.7-63.1C642.7,38.9,632.7,38.8,633,45.3L633,45.3z"/>
	</g>
</g>
<g>
	<g>
		<path d="M639.1,96.6c14.5,2.1,29.1,2.4,43.6,0.6c6.3-0.8,6.4-10.8,0-10c-13.6,1.7-27.4,1.7-41-0.2
			C635.4,86.1,632.7,95.7,639.1,96.6L639.1,96.6z"/>
	</g>
</g>
<g>
	<g>
		<path d="M702.4,43.1c15,0.7,30.1,0.3,45.1-1.4c6.3-0.7,6.4-10.7,0-10c-15,1.6-30,2.1-45.1,1.4C696,32.8,696,42.8,702.4,43.1
			L702.4,43.1z"/>
	</g>
</g>
<g>
	<g>
		<path d="M695.4,39.7c2.3,25.5,4.7,50.9,7,76.4c0.4,4.5-0.3,11.3,3,14.9c2.9,3.2,7.3,2.6,10.9,1.5c11.5-3.5,23.3-6.8,35.2-3.1
			c6.2,1.9,8.8-7.8,2.7-9.6c-9.6-2.9-19.5-2.3-29.2-0.1c-2.4,0.5-4.7,1.2-7.1,1.9c-1.2,0.3-2.3,0.7-3.5,1.1
			c-0.8,0.3-1.5,0.5-2.3,0.7c-0.8,0.2-0.7,0.2,0.1-0.1c0.2,0.6,0.4-2.8,0.4-3.2c-0.1-1.3-0.2-2.6-0.4-4c-0.3-3-0.5-6-0.8-8.9
			c-2.1-22.5-4.1-45-6.2-67.5C704.8,33.3,694.8,33.3,695.4,39.7L695.4,39.7z"/>
	</g>
</g>
<g>
	<g>
		<path d="M708,94.4c16.5,1.1,33-0.3,49.1-3.9c6.3-1.4,3.6-11.1-2.7-9.6c-15.3,3.4-30.8,4.6-46.5,3.6C701.6,84,701.6,94,708,94.4
			L708,94.4z"/>
	</g>
</g>
<g>
	<g>
		<path d="M776.5,17.8c5.4,12.3,11,24.5,17,36.6c4,8.1,8.9,23.2,20.3,22.7c11.1-0.5,14.7-15.5,18.2-23.7c5.5-13,11-26,16.6-39
			c2.5-5.9-6.1-11-8.6-5c-4.4,10.3-8.7,20.6-13.1,30.9c-2.2,5.1-4.4,10.3-6.5,15.4c-1,2.4-3.4,10.7-6.6,11.3
			c-3.3,0.6-6.1-6.9-7.2-9.1c-2.5-4.8-4.9-9.7-7.3-14.6c-4.9-10.1-9.5-20.3-14-30.5C782.6,6.8,773.9,11.9,776.5,17.8L776.5,17.8z"/>
	</g>
</g>
<g>
	<g>
		<path d="M807,71.7c0.5,17.5,1.3,35.1,2.5,52.6c0.3,4.3,0.6,8.6,0.9,12.9c0.3,3.8,0.1,8,1.1,11.7c1.4,5.6,8.3,7.9,11.4,2.2
			c0.8-1.5,1-3.6,0-5c-0.1-0.2-0.3-0.4-0.4-0.5c-3.8-5.1-12.4-0.2-8.6,5c0.1,0.2,0.3,0.4,0.4,0.5c0-1.7,0-3.4,0-5
			c-0.1,0.2-0.3,0.5-0.4,0.7c1-0.8,2-1.5,3-2.3c-0.3,0.1-0.5,0.1-0.8,0.2c1.6,0.4,3.2,0.9,4.9,1.3c0.3,1,0.4,1,0.2,0
			c0-0.6-0.1-1.2-0.1-1.8c-0.1-1.7-0.3-3.3-0.4-5c-0.3-3.3-0.5-6.6-0.7-9.9c-0.4-6.3-0.8-12.6-1.2-18.8c-0.7-12.9-1.3-25.8-1.6-38.7
			C816.8,65.3,806.8,65.3,807,71.7L807,71.7z"/>
	</g>
</g>
<g>
	<g>
		<path d="M852.6,40.4c-7,14.4-10.1,30.5-8.3,46.5c1.3,11.6,5.4,30.7,20.4,31c14.3,0.2,21.6-18.2,25.4-29.3
			c4.8-14.3,2.6-31.1-9.4-41.4c-5.9-5-14-8.1-21.6-5.6c-7.2,2.3-12.1,8.5-12.5,16c-0.3,6.4,9.7,6.4,10,0c0.3-6.8,8.6-7.9,13.5-5.6
			c5.7,2.6,9.7,8.6,11.5,14.4c1.9,6.5,1,13.1-1.1,19.5c-2,6-4.9,12.8-8.9,17.8c-10.8,13.5-16.5-10-17.3-17.7
			c-1.5-13.9,0.9-28,7-40.6C864,39.7,855.4,34.6,852.6,40.4L852.6,40.4z"/>
	</g>
</g>
<g>
	<g>
		<path d="M899.6,37.9c0.4,18,1.6,36,3.7,53.9c1.1,9.3,2.2,31.9,17.4,28.6c7.1-1.5,10.3-9.4,13.1-15.2c3.6-7.3,6.6-14.9,9.1-22.7
			c5.1-15.7,7.7-32.1,8.2-48.6c0.2-6.4-9.7-6.4-10,0c-0.7,17.4-0.4,34.9,1.1,52.2c0.7,8,1,16.6,2.9,24.4c1.3,5.4,8.5,8.7,11.5,2.5
			c1.1-2.2,0.7-4.2-0.8-6.1c-0.1-0.2-0.3-0.3-0.4-0.5c-4.1-5-11.1,2.1-7.1,7.1c0.1,0.2,0.3,0.3,0.4,0.5c-0.3-2-0.5-4-0.8-6.1
			c-0.1,0.2-0.2,0.5-0.4,0.7c1-0.8,2-1.5,3-2.3c-0.3,0.1-0.5,0.2-0.8,0.2c1.3,0.2,2.6,0.3,3.9,0.5c2,1.5,0.8-0.8,0.6-2.1
			c-0.2-1.8-0.5-3.6-0.7-5.4c-0.4-3.2-0.7-6.4-1.1-9.6c-0.6-6.1-1-12.2-1.4-18.3c-0.6-12.6-0.7-25.2-0.1-37.7c-3.3,0-6.7,0-10,0
			c-0.4,13.3-2.3,26.4-5.8,39.2c-1.7,6.3-3.8,12.5-6.3,18.6c-2.3,5.5-4.7,12.8-8.6,17.4c-3.8,4.5-5.4-4.2-5.8-7
			c-1.1-7.2-1.8-14.5-2.5-21.7c-1.4-14.1-2.2-28.2-2.5-42.4C909.5,31.4,899.5,31.4,899.6,37.9L899.6,37.9z"/>
	</g>
</g>
<g>
	<g>
		<path d="M972.8,22.4c0.1,34.8,1.7,69.6,4.6,104.3c0.5,6.4,10.6,6.4,10,0c-3-34.7-4.5-69.5-4.6-104.3
			C982.8,15.9,972.8,15.9,972.8,22.4L972.8,22.4z"/>
	</g>
</g>
<g>
	<g>
		<path d="M985.3,27.2c4.7-4.3,11.9-3.3,16.4,0.8c4.9,4.6,6.4,11.8,5.7,18.3c-1.3,11.7-10,31.1-23.7,32.1c1.4,2.5,2.9,5,4.3,7.5
			c-2,0.5-2.3,1.1-1,1.8c0.5,0.8,0.9,1.6,1.4,2.4c0.7,1.3,1.3,2.5,1.8,3.8c1.3,3,2.3,6.1,3.4,9.2c2.1,5.7,4.4,11.3,8.3,16
			c9,10.8,23.9,12,36,5.9c5.8-2.9,0.7-11.5-5-8.6c-6.9,3.5-15.7,3.5-21.7-1.9c-4.7-4.3-6.8-10.8-9-16.6c-2-5.6-3.9-12.6-8.1-17.1
			c-4-4.2-11.6-6-14.8,0.1c-1.6,3.1,0.3,7.8,4.3,7.5c20.8-1.5,34.9-28.1,33.8-47.1c-0.5-9.3-4.9-18.9-13.1-23.7
			c-8.4-4.9-19-4-26.1,2.5C973.5,24.4,980.6,31.5,985.3,27.2L985.3,27.2z"/>
	</g>
</g>
<g>
	<g>
		<path d="M1059.7,22.3c-21.7-6.3-41.9,14.9-33.5,36.2c2,5.1,5.4,9,9.7,12.4c4.3,3.4,9.7,6.2,12.5,11.1c2.9,5,0.9,9.7-5.1,10
			c-6.1,0.3-11.3-4.6-15.6-8.3c-4.8-4.2-11.9,2.8-7.1,7.1c8.1,7.1,18.2,14.4,29.5,9.8c11.1-4.5,11.8-17.2,5.3-26
			c-6.9-9.2-20.8-12.6-21.2-25.9c-0.3-12.2,11.4-20.1,22.8-16.8C1063.3,33.8,1065.9,24.1,1059.7,22.3L1059.7,22.3z"/>
	</g>
</g>
<g>
	<g>
		<path d="M1082,39.4c13.6-0.6,27.2-1.2,40.8-1.8c6.4-0.3,6.4-10.3,0-10c-13.6,0.6-27.2,1.2-40.8,1.8
			C1075.6,29.7,1075.6,39.7,1082,39.4L1082,39.4z"/>
	</g>
</g>
<g>
	<g>
		<path d="M1081.1,33.6c-1.6,24.2-1.4,48.4,0.6,72.5c0.4,4.1,0.3,9.1,4.8,10.8c3.8,1.4,8.9-0.5,12.6-1.6c9.5-2.9,19.5-8.5,29.7-5.7
			c6.2,1.7,8.9-7.9,2.7-9.6c-7.1-1.9-14.1-1.1-21,1c-3.7,1.1-7.2,2.5-10.8,3.7c-2.5,0.8-7.8,3.5-10.4,2.6c1,0.8,2,1.5,3,2.3
			c-1.3-2-0.8-7.1-0.9-9.3c-0.2-3.3-0.4-6.5-0.6-9.8c-0.3-6.2-0.5-12.4-0.6-18.6c-0.2-12.8,0.2-25.5,1.1-38.2
			C1091.5,27.1,1081.5,27.2,1081.1,33.6L1081.1,33.6z"/>
	</g>
</g>
<g>
	<g>
		<path d="M1089.1,71.9c12.7,1,25.3,2,38,3.1c6.4,0.5,6.4-9.5,0-10c-12.7-1-25.3-2-38-3.1C1082.7,61.4,1082.7,71.4,1089.1,71.9
			L1089.1,71.9z"/>
	</g>
</g>
<g>
	<g>
		<path d="M1144.8,8.3c2.7,29.6,3.6,59.4,2.5,89.2c-0.3,7.2-0.7,14.4-1.2,21.6c-0.4,5.1-1.4,11.7,4.4,14.2c5.2,2.2,13-0.3,18.4-0.9
			c7.7-0.9,15.3-1.8,23-2.7c6.3-0.7,6.4-10.8,0-10c-6.4,0.8-12.8,1.5-19.2,2.3c-3.2,0.4-6.4,0.8-9.6,1.1c-2.1,0.2-7.2-0.2-8.9,1
			c1.1,1.6,1.6,1.7,1.5,0.6c0-0.9,0.1-1.7,0.2-2.6c0.1-1.3,0.2-2.6,0.3-3.9c0.2-3.3,0.4-6.5,0.6-9.8c0.4-6.9,0.6-13.7,0.8-20.6
			c0.6-26.5-0.3-53-2.8-79.4C1154.2,1.9,1144.2,1.9,1144.8,8.3L1144.8,8.3z"/>
	</g>
</g>
<g>
	<g>
		<path d="M1188.2,16.7c-2.3,29.1-2,58.3,1,87.4c0.7,6.3,10.7,6.4,10,0c-3-29.1-3.3-58.3-1-87.4
			C1198.7,10.3,1188.7,10.4,1188.2,16.7L1188.2,16.7z"/>
	</g>
</g>
<g>
	<g>
		<path d="M1192,22.8c13.6,2,27,2,40.6,0c6.3-1,3.6-10.6-2.7-9.6c-11.7,1.8-23.6,1.8-35.3,0C1188.3,12.2,1185.6,21.8,1192,22.8
			L1192,22.8z"/>
	</g>
</g>
<g>
	<g>
		<path d="M1190.4,68.4c13.6,1.4,27.2,1.8,40.9,1.1c6.4-0.3,6.4-10.3,0-10c-13.6,0.7-27.3,0.3-40.9-1.1
			C1184,57.8,1184.1,67.8,1190.4,68.4L1190.4,68.4z"/>
	</g>
</g>
<g>
	<g>
		<path d="M1254.6,27.7c3.7-11.1,18-17.7,28.4-11.4c10.2,6.2,12.6,19.8,5.9,29.4c-6.8,9.6-18.1,15-26,23.6
			c-8,8.7-13.5,24.6,0.9,30.2c6,2.3,8.6-7.3,2.7-9.6c-7.2-2.8,4.8-14.9,7.4-17.2c5.1-4.6,10.8-8.4,15.9-13
			c9.6-8.7,15.8-20.5,12.1-33.6c-3.5-12.2-14.3-21.8-27.3-22c-13.3-0.2-25.4,8.7-29.5,21.2C1242.9,31.1,1252.6,33.7,1254.6,27.7
			L1254.6,27.7z"/>
	</g>
</g>
<g>
	<g>
		<path d="M1263.7,124.6c0.5,0,0.9,0,1.4,0c1.3,0,2.6-0.6,3.5-1.5c0.9-0.9,1.5-2.3,1.5-3.5c-0.1-1.3-0.5-2.6-1.5-3.5
			c-1-0.9-2.2-1.5-3.5-1.5c-0.5,0-0.9,0-1.4,0c-1.3,0-2.6,0.6-3.5,1.5c-0.9,0.9-1.5,2.3-1.5,3.5c0.1,1.3,0.5,2.6,1.5,3.5
			C1261.1,124,1262.3,124.6,1263.7,124.6L1263.7,124.6z"/>
	</g>
</g>
</svg>
